<svg width="28" height="28" viewBox="0 0 28 28" fill="none" xmlns="http://www.w3.org/2000/svg">
<path d="M20.2738 7.28875C18.5641 5.68794 16.3454 4.81042 13.9917 4.8125C9.7557 4.81622 6.09875 7.72067 5.08905 11.7496C5.01555 12.0429 4.75426 12.25 4.45189 12.25H1.31813C0.908086 12.25 0.596586 11.8777 0.672437 11.4748C1.85571 5.19116 7.37259 0.4375 14 0.4375C17.6339 0.4375 20.9339 1.86681 23.3688 4.19371L25.322 2.24055C26.1488 1.41373 27.5625 1.99932 27.5625 3.16865V10.5C27.5625 11.2249 26.9749 11.8125 26.25 11.8125H18.9186C17.7493 11.8125 17.1637 10.3988 17.9905 9.5719L20.2738 7.28875ZM1.75 16.1875H9.08135C10.2507 16.1875 10.8363 17.6012 10.0095 18.4281L7.72625 20.7113C9.43589 22.3122 11.6547 23.1897 14.0085 23.1876C18.2423 23.1837 21.9008 20.2812 22.9109 16.2505C22.9844 15.9572 23.2457 15.7501 23.5481 15.7501H26.6819C27.092 15.7501 27.4035 16.1224 27.3276 16.5254C26.1443 22.8088 20.6274 27.5625 14 27.5625C10.3661 27.5625 7.06612 26.1332 4.63121 23.8063L2.67805 25.7595C1.85123 26.5863 0.4375 26.0007 0.4375 24.8314V17.5C0.4375 16.7751 1.02512 16.1875 1.75 16.1875Z" fill="#4C4C4C"/>
</svg>
