<svg width="45" height="37" viewBox="0 0 45 37" fill="none" xmlns="http://www.w3.org/2000/svg">
<path d="M43.125 3.5V14.75H31.875" stroke="#5F25DA" stroke-width="2" stroke-linecap="round" stroke-linejoin="round"/>
<path d="M1.875 33.5V22.25H13.125" stroke="#5F25DA" stroke-width="2" stroke-linecap="round" stroke-linejoin="round"/>
<path d="M6.58125 12.875C7.53219 10.1877 9.14838 7.78512 11.279 5.8914C13.4096 3.99768 15.9852 2.67455 18.7655 2.04547C21.5458 1.4164 24.4402 1.50188 27.1785 2.29394C29.9168 3.086 38.6991 10.8588 40.7143 12.875M1.875 22.25L10.575 30.425C12.5902 32.4411 15.0832 33.914 17.8215 34.706C20.5598 35.4981 23.4542 35.5836 26.2345 34.9545C29.0148 34.3254 31.5904 33.0023 33.721 31.1086C35.8516 29.2149 37.4678 26.8123 38.4188 24.125" stroke="#5F25DA" stroke-width="2" stroke-linecap="round" stroke-linejoin="round"/>
</svg>
