<svg width="33" height="32" viewBox="0 0 33 32" fill="none" xmlns="http://www.w3.org/2000/svg">
<path d="M16.0625 8.30164L5.50043 19.1493V30.857C5.50043 31.1602 5.597 31.4509 5.7689 31.6652C5.94079 31.8796 6.17393 32 6.41703 32L12.8366 31.9793C13.0789 31.9778 13.3109 31.8567 13.4818 31.6425C13.6527 31.4283 13.7487 31.1384 13.7487 30.8363V23.9991C13.7487 23.696 13.8452 23.4052 14.0171 23.1909C14.189 22.9765 14.4222 22.8561 14.6652 22.8561H18.3316C18.5747 22.8561 18.8079 22.9765 18.9798 23.1909C19.1517 23.4052 19.2482 23.696 19.2482 23.9991V30.8313C19.2479 30.9817 19.2713 31.1307 19.3172 31.2698C19.3631 31.4089 19.4305 31.5353 19.5157 31.6418C19.6008 31.7483 19.702 31.8328 19.8134 31.8905C19.9248 31.9482 20.0442 31.9779 20.1648 31.9779L26.5821 32C26.8252 32 27.0584 31.8796 27.2303 31.6652C27.4022 31.4509 27.4987 31.1602 27.4987 30.857V19.1414L16.939 8.30164C16.8148 8.17686 16.6602 8.10881 16.5007 8.10881C16.3413 8.10881 16.1866 8.17686 16.0625 8.30164ZM32.7463 15.6746L27.957 10.7519V0.857238C27.957 0.629885 27.8846 0.411843 27.7557 0.251079C27.6268 0.0903161 27.4519 0 27.2696 0H24.0615C23.8792 0 23.7043 0.0903161 23.5754 0.251079C23.4465 0.411843 23.3741 0.629885 23.3741 0.857238V6.04425L18.2451 0.78223C17.7529 0.277159 17.1353 0.00100964 16.4979 0.00100964C15.8604 0.00100964 15.2428 0.277159 14.7506 0.78223L0.249485 15.6746C0.179874 15.7464 0.122282 15.8345 0.0799993 15.934C0.0377167 16.0335 0.0115725 16.1424 0.00306037 16.2546C-0.00545171 16.3667 0.00383519 16.4798 0.0303904 16.5874C0.0569457 16.6951 0.100249 16.7951 0.157826 16.8819L1.61865 19.0964C1.67607 19.1835 1.7467 19.2556 1.82649 19.3086C1.90628 19.3615 1.99367 19.3944 2.08365 19.4052C2.17363 19.416 2.26444 19.4046 2.35087 19.3716C2.43731 19.3386 2.51768 19.2846 2.58738 19.2129L16.0625 5.37274C16.1866 5.24796 16.3413 5.17991 16.5007 5.17991C16.6602 5.17991 16.8148 5.24796 16.939 5.37274L30.4147 19.2129C30.4842 19.2847 30.5645 19.3387 30.6508 19.3718C30.7371 19.4049 30.8278 19.4165 30.9177 19.4058C31.0076 19.3952 31.095 19.3626 31.1748 19.3099C31.2546 19.2572 31.3253 19.1854 31.3828 19.0986L32.8436 16.884C32.9012 16.7968 32.9443 16.6962 32.9705 16.5881C32.9968 16.48 33.0056 16.3665 32.9966 16.2541C32.9875 16.1417 32.9607 16.0326 32.9178 15.9332C32.8748 15.8337 32.8165 15.7459 32.7463 15.6746Z" fill="white"/>
</svg>
